<?xml version="1.0" standalone="no"?>
<!DOCTYPE svg PUBLIC "-//W3C//DTD SVG 20010904//EN"
 "http://www.w3.org/TR/2001/REC-SVG-20010904/DTD/svg10.dtd">
<svg version="1.0" xmlns="http://www.w3.org/2000/svg"
 width="700.000000pt" height="700.000000pt" viewBox="0 0 700.000000 700.000000"
 preserveAspectRatio="xMidYMid meet">
<metadata>
Created by potrace 1.11, written by Peter Selinger 2001-2013
</metadata>
<g transform="translate(0.000000,700.000000) scale(0.100000,-0.100000)"
fill="#000000" stroke="none">
<path d="M460 6060 c-4 -3 -7 -57 -6 -120 l1 -115 2995 -2 c1647 -1 3005 0
3016 3 21 4 22 9 22 119 -1 63 -4 116 -7 116 -20 4 -6014 3 -6021 -1z"/>
<path d="M488 5218 c19 -33 121 -210 159 -278 11 -19 76 -132 145 -250 161
-276 649 -1123 684 -1186 15 -27 35 -61 45 -75 10 -15 23 -37 29 -50 6 -13 31
-58 55 -99 24 -41 42 -76 40 -78 -2 -3 -271 -5 -597 -6 l-593 -1 -1 -145 c-1
-80 2 -147 6 -150 5 -3 313 -5 687 -4 602 0 679 -2 689 -15 6 -9 22 -34 34
-56 12 -22 59 -103 103 -180 44 -77 85 -149 92 -160 6 -11 36 -63 66 -115 87
-148 319 -549 347 -600 14 -25 42 -74 64 -109 21 -34 38 -64 38 -66 0 -2 62
-111 138 -242 77 -131 150 -258 164 -283 14 -25 46 -81 72 -125 26 -44 51 -87
56 -95 25 -42 150 -261 172 -300 14 -25 81 -142 150 -260 69 -118 133 -230
142 -247 9 -18 20 -33 24 -33 6 0 107 167 178 295 15 27 102 177 211 365 94
163 498 863 531 921 11 19 95 164 187 323 92 159 179 310 193 335 14 25 43 74
64 109 21 34 38 65 38 67 0 3 12 24 27 48 15 23 31 51 37 62 6 11 55 97 109
190 l99 171 656 0 657 0 2 151 1 151 -551 0 c-304 0 -560 1 -570 1 -15 1 -14
8 14 59 45 81 353 613 386 667 7 11 16 27 20 35 4 8 49 87 100 174 51 87 93
160 93 162 0 1 27 48 60 104 33 56 60 106 60 111 0 5 5 9 10 9 6 0 10 5 10 11
0 6 23 49 51 97 29 48 60 101 69 117 30 53 247 429 270 468 l22 37 -3032 0
-3032 0 20 -32z"/>
</g>
</svg>
